HIERARCHY
ROOT Hips
{
	OFFSET 0.000000 0.000000 0.000000
	CHANNELS 6 Xposition Yposition Zposition Xrotation Yrotation Zrotation
	JOINT LeftUpLeg_virtual
	{
		OFFSET 0.000000 0.000000 0.000000
		CHANNELS 3 Xrotation Yrotation Zrotation
		JOINT LeftUpLeg
		{
			OFFSET 11.394100 -6.187798 -0.413800
			CHANNELS 3 Xrotation Yrotation Zrotation
			JOINT LeftLeg
			{
				OFFSET 0.430247 -32.302673 3.732800
				CHANNELS 3 Xrotation Yrotation Zrotation
				JOINT LeftFoot
				{
					OFFSET -0.430247 -48.264931 -6.423300
					CHANNELS 3 Xrotation Yrotation Zrotation
					JOINT LeftToeBase
					{
						OFFSET 4.230900 -16.068199 23.438400
						CHANNELS 3 Xrotation Yrotation Zrotation
						JOINT LeftToe_End
						{
							OFFSET 4.510700 0.695400 19.974600
							CHANNELS 3 Xrotation Yrotation Zrotation
							End Site
							{
								OFFSET 0 0 0
							}
						}
					}
				}
			}
		}
	}
	JOINT RightUpLeg_virtual
	{
		OFFSET 0.000000 0.000000 0.000000
		CHANNELS 3 Xrotation Yrotation Zrotation
		JOINT RightUpLeg
		{
			OFFSET -11.333700 -6.187798 -0.413800
			CHANNELS 3 Xrotation Yrotation Zrotation
			JOINT RightLeg
			{
				OFFSET -0.430392 -32.302628 3.733000
				CHANNELS 3 Xrotation Yrotation Zrotation
				JOINT RightFoot
				{
					OFFSET 0.430392 -48.264973 -6.423500
					CHANNELS 3 Xrotation Yrotation Zrotation
					JOINT RightToeBase
					{
						OFFSET -4.230900 -16.068199 23.438400
						CHANNELS 3 Xrotation Yrotation Zrotation
						JOINT RightToe_End
						{
							OFFSET -4.510700 0.695400 19.974600
							CHANNELS 3 Xrotation Yrotation Zrotation
							End Site
							{
								OFFSET 0 0 0
							}
						}
					}
				}
			}
		}
	}
	JOINT Spine_virtual
	{
		OFFSET 0.000000 0.000000 0.000000
		CHANNELS 3 Xrotation Yrotation Zrotation
		JOINT Spine
		{
			OFFSET -0.002400 12.777504 0.315300
			CHANNELS 3 Xrotation Yrotation Zrotation
			JOINT Spine1
			{
				OFFSET -0.002067 5.816869 0.032633
				CHANNELS 3 Xrotation Yrotation Zrotation
				JOINT Spine1_split
				{
					OFFSET -0.002067 5.816869 0.032633
					CHANNELS 3 Xrotation Yrotation Zrotation
					JOINT Spine2
					{
						OFFSET -0.002067 5.816869 0.032633
						CHANNELS 3 Xrotation Yrotation Zrotation
						JOINT Neck_virtual
						{
							OFFSET 0.000000 0.000000 0.000000
							CHANNELS 3 Xrotation Yrotation Zrotation
							JOINT Neck
							{
								OFFSET -0.003700 21.199493 -0.826900
								CHANNELS 3 Xrotation Yrotation Zrotation
								JOINT Head
								{
									OFFSET 0.000000 20.442200 4.834800
									CHANNELS 3 Xrotation Yrotation Zrotation
									JOINT HeadTop_End
									{
										OFFSET 0.000000 34.668396 4.968400
										CHANNELS 3 Xrotation Yrotation Zrotation
										End Site
										{
											OFFSET 0 0 0
										}
									}
								}
							}
						}
						JOINT LeftShoulder_virtual
						{
							OFFSET 0.000000 0.000000 0.000000
							CHANNELS 3 Xrotation Yrotation Zrotation
							JOINT LeftShoulder
							{
								OFFSET 3.288150 8.794197 -1.372250
								CHANNELS 3 Xrotation Yrotation Zrotation
								JOINT LeftShoulder_split
								{
									OFFSET 3.288150 8.794197 -1.372250
									CHANNELS 3 Xrotation Yrotation Zrotation
									JOINT LeftArm
									{
										OFFSET 11.953299 -2.279007 -0.146200
										CHANNELS 3 Xrotation Yrotation Zrotation
										JOINT LeftForeArm
										{
											OFFSET 18.448900 0.000000 0.000000
											CHANNELS 3 Xrotation Yrotation Zrotation
											JOINT LeftHand
											{
												OFFSET 29.527798 0.000000 0.000000
												CHANNELS 3 Xrotation Yrotation Zrotation
												End Site
												{
													OFFSET 0 0 0
												}
											}
										}
									}
								}
							}
						}
						JOINT RightShoulder_virtual
						{
							OFFSET 0.000000 0.000000 0.000000
							CHANNELS 3 Xrotation Yrotation Zrotation
							JOINT RightShoulder
							{
								OFFSET -3.249400 8.794197 -1.372250
								CHANNELS 3 Xrotation Yrotation Zrotation
								JOINT RightShoulder_split
								{
									OFFSET -3.249400 8.794197 -1.372250
									CHANNELS 3 Xrotation Yrotation Zrotation
									JOINT RightArm
									{
										OFFSET -11.953299 -2.279007 -0.146200
										CHANNELS 3 Xrotation Yrotation Zrotation
										JOINT RightForeArm
										{
											OFFSET -18.448900 0.000000 0.000000
											CHANNELS 3 Xrotation Yrotation Zrotation
											JOINT RightHand
											{
												OFFSET -29.527802 0.000000 0.000000
												CHANNELS 3 Xrotation Yrotation Zrotation
												End Site
												{
													OFFSET 0 0 0
												}
											}
										}
									}
								}
							}
						}
					}
				}
			}
		}
	}
}
MOTION
Frames: 4
Frame Time: 0.03333333
0.580824 98.343147 -47.480404 0.000000 0.000000 0.000000 173.904922 -67.379727 176.743999 -31.131258 9.783067 15.249497 33.237104 0.516456 -0.469577 -0.161304 -1.801095 0.938743 1.484389 6.701249 -9.782456 0.000000 0.000000 0.000000 173.537526 -65.855694 176.690997 -15.250397 -12.558378 5.733424 16.785632 5.813992 -4.681625 -6.901373 3.707002 -9.498082 -1.779256 -11.877806 -3.306666 0.000000 0.000000 0.000000 172.038818 -66.834064 173.644992 4.072459 1.963606 3.832649 -3.383484 1.328500 -2.315029 0.679921 -1.474259 0.291356 0.000000 0.000000 0.000000 -5.032095 1.571765 -1.982682 1.627257 19.522690 7.575491 4.906918 27.189620 -15.163770 0.000000 0.000000 0.000000 -5.295734 2.172541 -2.229915 0.878394 0.501006 0.887170 -0.471824 -1.197102 -0.850842 12.619510 0.514635 -67.079896 7.691915 -21.268850 -7.982574 0.000000 0.000000 0.000000 -4.469008 1.855524 -2.756946 2.751670 -5.414585 17.730833 -5.438039 -1.087913 -0.846463 11.130452 32.879540 53.756642 15.134489 29.922144 -1.123302 0.000000 0.000000 0.000000 
-0.295319 98.798012 -48.940006 0.000000 0.000000 0.000000 173.679006 -62.168436 176.237322 -31.792485 2.942818 11.079383 33.437652 0.675674 0.175171 1.114470 -1.322036 0.605131 0.139576 7.433884 -10.188465 0.000000 0.000000 0.000000 173.272118 -59.948338 176.200261 -14.383427 -10.024427 7.396592 17.601432 8.665204 -4.330404 -6.957442 3.468448 -11.594953 -2.149553 -11.609795 -3.468932 0.000000 0.000000 0.000000 172.587774 -61.150055 173.729044 4.471657 2.488137 3.687805 -3.288414 1.786933 -2.417758 0.723216 -1.403685 0.357427 0.000000 0.000000 0.000000 -5.011408 1.989501 -2.133716 1.330389 17.754558 7.558598 4.136938 24.718786 -14.052059 0.000000 0.000000 0.000000 -5.332621 2.600240 -2.322976 0.782507 0.349804 1.287478 -0.169345 -1.186520 -0.781824 13.769287 1.316884 -68.631079 8.793513 -20.242080 -8.051068 0.000000 0.000000 0.000000 -4.414420 2.258957 -2.886711 2.777757 -5.733056 17.891737 -5.341822 -1.222899 -0.641093 10.089412 34.977515 53.849560 15.355099 28.979004 -1.570093 0.000000 0.000000 0.000000 
-1.295838 99.381302 -50.549679 0.000000 0.000000 0.000000 173.485753 -56.962138 175.739934 -33.441661 -3.064745 7.236024 32.509651 0.186917 0.869267 2.600196 -1.327741 -0.860546 -2.035169 8.188653 -10.446323 0.000000 0.000000 0.000000 173.317730 -54.059178 176.109379 -13.305486 -7.455293 8.905661 18.975802 11.283448 -4.025660 -6.876165 3.211475 -13.665948 -1.992981 -11.287309 -3.657882 0.000000 0.000000 0.000000 173.205319 -55.566126 174.038124 4.874402 2.961082 3.260617 -3.065473 2.155096 -2.295681 0.796082 -1.087779 0.371165 0.000000 0.000000 0.000000 -4.866041 2.330674 -2.081564 1.105165 15.684348 7.128669 2.931872 21.383919 -12.306859 0.000000 0.000000 0.000000 -5.261580 2.947227 -2.176748 0.683878 0.182910 1.599167 0.152181 -1.229545 -0.756338 14.632628 1.828480 -70.179265 9.590613 -18.407971 -8.254751 0.000000 0.000000 0.000000 -4.261095 2.576525 -2.772368 2.817861 -6.073861 17.851994 -5.229736 -1.292991 -0.390926 8.863675 37.304567 54.258077 15.397183 27.688491 -1.985607 0.000000 0.000000 0.000000 
-2.408996 99.899551 -52.146900 0.000000 0.000000 0.000000 173.584436 -51.584645 175.649134 -35.859309 -7.611956 4.076825 30.900848 -0.685558 1.363221 4.103822 -1.621655 -2.953634 -3.659180 8.840064 -10.952055 0.000000 0.000000 0.000000 173.606497 -48.222385 176.308042 -12.333877 -5.080602 10.186491 20.849858 13.890093 -3.879133 -6.003630 3.026382 -15.210585 -2.410099 -10.835175 -4.409718 0.000000 0.000000 0.000000 173.941204 -50.291567 174.728752 5.314201 3.357637 2.630387 -2.729708 2.420005 -1.980385 0.917351 -0.566376 0.274811 0.000000 0.000000 0.000000 -4.595852 2.579665 -1.849923 1.051917 13.353814 6.317645 1.517105 17.331042 -10.141499 0.000000 0.000000 0.000000 -5.076830 3.205339 -1.826130 0.592283 0.099703 1.782239 0.524979 -1.413643 -0.744530 15.349534 2.179846 -71.522770 10.017172 -16.315573 -8.571043 0.000000 0.000000 0.000000 -4.020421 2.800866 -2.458769 2.868697 -6.409779 17.550873 -5.040312 -1.266316 -0.090099 7.530611 39.669489 55.038071 15.296429 26.412205 -2.402453 0.000000 0.000000 0.000000 
